<svg xmlns="http://www.w3.org/2000/svg" viewBox="0 0 448 512"><path fill="currentColor" d="M0 40c0-4.4 3.6-8 8-8s8 3.6 8 8l0 432c0 4.4-3.6 8-8 8s-8-3.6-8-8L0 40zm192 0c0-4.4 3.6-8 8-8s8 3.6 8 8l0 432c0 4.4-3.6 8-8 8s-8-3.6-8-8l0-432zm128 0c0-4.4 3.6-8 8-8s8 3.6 8 8l0 432c0 4.4-3.6 8-8 8s-8-3.6-8-8l0-432zm-72-8c4.4 0 8 3.6 8 8l0 432c0 4.4-3.6 8-8 8s-8-3.6-8-8l0-432c0-4.4 3.6-8 8-8zm192 0c4.4 0 8 3.6 8 8l0 432c0 4.4-3.6 8-8 8s-8-3.6-8-8l0-432c0-4.4 3.6-8 8-8zM64 40c0-4.4 3.6-8 8-8s8 3.6 8 8l0 432c0 4.4-3.6 8-8 8s-8-3.6-8-8L64 40zm56-8c4.4 0 8 3.6 8 8l0 432c0 4.4-3.6 8-8 8s-8-3.6-8-8l0-432c0-4.4 3.6-8 8-8z"/></svg>