<?xml version='1.0' encoding='UTF-8'?>
<svg xmlns="http://www.w3.org/2000/svg" id="Layer_1" viewBox="135.3 135.1 670.0999999999999 884.7"><defs><style>.cls-1{fill:#34ae17;}</style></defs><path class="cls-1" d="M734,135.1H206.6c-39.4,0-71.3,31.9-71.3,71.3v527.5c0,39.4,31.9,71.3,71.3,71.3h527.5c39.4,0,71.3-31.9,71.3-71.3V206.4c0-39.4-31.9-71.3-71.3-71.3h-.1ZM495.8,271.7h164.8v131.4h-164.8v-131.4h0ZM504.1,668.4l-100.5-154.5v154.5h-131.4v-265.2h93.6c-36.3-8.3-59.1-44.4-50.8-80.7s44.4-59,80.7-50.8c36.3,8.3,59,44.4,50.8,80.7-5.8,25.3-25.5,45-50.8,50.8h100.1l172.6,265.2h-164.3Z" /><path class="cls-1" d="M176.5,1019.7h-24.1v-135.5h24.1v135.5Z" /><path class="cls-1" d="M303.7,1019.7h-21.4l-64.3-92.3h-1.1v92.3h-24.1v-135.5h21.8l63.9,92.7h1.1v-92.7h24.1v135.5Z" /><path class="cls-1" d="M318.1,884.2h24.1v62.4h1.9l52.8-62.4h29.9l-52.5,60.9,52.8,74.7h-29.1l-40.6-58.2-15.3,18v40.2h-24.1v-135.5h.1v-.1Z" /><path class="cls-1" d="M438,884.2h24.1v115.2h59.7v20.3h-83.8v-135.5Z" /><path class="cls-1" d="M557.6,1019.7h-24.1v-135.5h24.1v135.5Z" /><path class="cls-1" d="M684.5,1019.7h-21.4l-64.3-92.3h-1.1v92.3h-24.1v-135.5h21.8l63.9,92.7h1.1v-92.7h24.1v135.5Z" /><path class="cls-1" d="M699.8,884.2h88.1v20.7h-63.9v36.8h59.3v20.7h-59.3v37.1h64.3v20.3h-88.4v-135.5h0l-.1-.1Z" /></svg>