<?xml version='1.0' encoding='UTF-8'?>
<svg xmlns="http://www.w3.org/2000/svg" id="Layer_1" viewBox="60.2 60.2 950.6999999999999 244.60000000000002"><defs><style>.cls-1{fill:#1399cc;}</style></defs><path class="cls-1" d="M278.8,60.2H86.2c-14.4,0-26,11.7-26,26v192.6c0,14.4,11.7,26,26,26h192.6c14.4,0,26-11.7,26-26V86.2c0-14.4-11.7-26-26-26ZM191.8,110.1h60.2v48h-60.2v-48ZM194.9,254.9l-36.7-56.4v56.4h-48v-96.8h34.2c-13.3-3-21.6-16.2-18.5-29.5,3-13.3,16.2-21.6,29.5-18.5,13.3,3,21.6,16.2,18.5,29.5-2.1,9.2-9.3,16.4-18.5,18.5h36.5l63,96.8h-60Z" /><path class="cls-1" d="M407.8,249.3h-23.8V115.7h23.8v133.6Z" /><path class="cls-1" d="M533.2,249.3h-21.1l-63.4-91h-1.1v91h-23.8V115.7h21.5l63,91.4h1.1v-91.4h23.8v133.6h0Z" /><path class="cls-1" d="M547.4,115.7h23.8v61.5h1.9l52.1-61.5h29.4l-51.7,60,52.1,73.6h-28.7l-40-57.4-15.1,17.7v39.6h-23.8V115.7Z" /><path class="cls-1" d="M665.5,115.7h23.8v113.6h58.9v20h-82.7V115.7Z" /><path class="cls-1" d="M783.5,249.3h-23.8V115.7h23.8v133.6Z" /><path class="cls-1" d="M908.6,249.3h-21.1l-63.4-91h-1.1v91h-23.8V115.7h21.5l63,91.4h1.1v-91.4h23.8v133.6h0Z" /><path class="cls-1" d="M923.7,115.7h86.8v20.4h-63v36.2h58.5v20.4h-58.5v36.6h63.4v20h-87.2V115.7Z" /></svg>