<?xml version='1.0' encoding='UTF-8'?>
<svg xmlns="http://www.w3.org/2000/svg" id="Layer_1" viewBox="135.2 135.2 670.0999999999999 670.0999999999999"><defs><style>.cls-1{fill:#0057b8;}</style></defs><path class="cls-1" d="M733.9,135.2H206.5c-39.4,0-71.3,31.9-71.3,71.3v527.5c0,39.4,31.9,71.3,71.3,71.3h527.5c39.4,0,71.3-31.9,71.3-71.3V206.5c0-39.4-31.9-71.3-71.3-71.3h-.1ZM495.7,271.8h164.8v131.4h-164.8v-131.4ZM504,668.5l-100.5-154.5v154.5h-131.4v-265.2h93.6c-36.3-8.3-59.1-44.4-50.8-80.7,8.3-36.3,44.4-59,80.7-50.8,36.3,8.3,59,44.4,50.8,80.7-5.8,25.3-25.5,45-50.8,50.8h100.1l172.6,265.2h-164.3Z" /></svg>