<?xml version='1.0' encoding='UTF-8'?>
<svg xmlns="http://www.w3.org/2000/svg" id="Layer_1" viewBox="60.199999999999996 60.199999999999996 635.8 135.60000000000002"><defs><style>.cls-1{fill:#ff66c9;}</style></defs><path class="cls-1" d="M84.3,195.7h-24.1V60.2h24.1v135.5Z" /><path class="cls-1" d="M211.5,195.7h-21.4l-64.3-92.3h-1.1v92.3h-24.1V60.2h21.8l63.9,92.7h1.1V60.2h24.1v135.5h0Z" /><path class="cls-1" d="M225.9,60.2h24.1v62.4h1.9l52.8-62.4h29.9l-52.5,60.9,52.8,74.7h-29.1l-40.6-58.2-15.3,18v40.2h-24.1V60.2h.1Z" /><path class="cls-1" d="M345.7,60.2h24.1v115.2h59.7v20.3h-83.8V60.2Z" /><path class="cls-1" d="M465.3,195.7h-24.1V60.2h24.1v135.5Z" /><path class="cls-1" d="M592.2,195.7h-21.4l-64.3-92.3h-1.1v92.3h-24.1V60.2h21.8l63.9,92.7h1.1V60.2h24.1v135.5h0Z" /><path class="cls-1" d="M607.5,60.2h88.1v20.7h-63.9v36.8h59.3v20.7h-59.3v37.1h64.3v20.3h-88.4V60.2h-.1Z" /></svg>